<?xml version="1.0" encoding="UTF-8"?>
<svg id="Layer_2" data-name="Layer 2" xmlns="http://www.w3.org/2000/svg" viewBox="0 0 1127.51 398.32">
  <defs>
    <style>
      .cls-1 {
        fill: #fff;
        stroke-width: 0px;
      }
    </style>
  </defs>
  <g id="Layer_1-2" data-name="Layer 1">
    <g>
      <path class="cls-1" d="m185.22,81l12.6,3.6c11.6-4.6,23.75-7.65,36.45-9.15,12.7-1.5,23.9-1.7,33.6-.6,9.7,1.1,18.55,2.95,26.55,5.55,8.2,2.6,12.9,7.4,14.1,14.4,1.2,7-1,14.2-6.6,21.6-5.6,7.4-13.3,13-23.1,16.8-10,3.8-39.1-4.6-87.3-25.2-24.2,20.8-43.5,54.8-57.9,102-9.2,30.8-21.8,60.7-37.8,89.7-16,29-31.75,51-47.25,66-15.5,15-27.15,18.5-34.95,10.5-2.8-2.8-5.3-7.05-7.5-12.75-2.2-5.7-3.95-12.65-5.25-20.85-1.3-8.2-1.15-17.95.45-29.25,1.6-11.3,4.7-22.75,9.3-34.35l.3-.3c3-.4,7.45-.05,13.35,1.05,5.9,1.1,11.3,2.85,16.2,5.25,4.9,2.4,6.95,5,6.15,7.8-.2.2-1.55,2.85-4.05,7.95-2.5,5.1-5.4,11-8.7,17.7-3.3,6.7-6.55,13.45-9.75,20.25-3.2,6.8-5.6,12.7-7.2,17.7-1.6,5-1.9,7.8-.9,8.4,5.8,3,12.05,1.3,18.75-5.1,6.7-6.4,13.5-17.05,20.4-31.95,6.9-14.9,13.65-31.9,20.25-51,6.6-19.1,13.6-41.35,21-66.75,14.8-51,39.5-88.1,74.1-111.3l-3.6-1.8c-23.8-11.2-45.5-13.65-65.1-7.35-19.6,6.3-35.3,20.45-47.1,42.45-7,12.6-10.45,23.8-10.35,33.6.1,9.8,4.45,15.9,13.05,18.3.8.2,1.7-.5,2.7-2.1,1-1.6,1.9-3.7,2.7-6.3.8-2.6,1.6-5.55,2.4-8.85.8-3.3,1.5-6.7,2.1-10.2.6-3.5,1.15-6.65,1.65-9.45.5-2.8.95-5.2,1.35-7.2.4-2,.7-3.2.9-3.6,2.4-3.8,8.7-4.65,18.9-2.55s16.9,4.95,20.1,8.55c-.2,0-.3.1-.3.3-6.8,18.2-15.4,31.2-25.8,39-10.4,7.8-21.2,11.9-32.4,12.3-8.6.4-16.5-2.25-23.7-7.95-7.2-5.7-11.85-13.95-13.95-24.75-2.1-10.8,1.05-24,9.45-39.6,12.2-21.8,32.75-36.35,61.65-43.65,28.9-7.3,62.25-6.25,100.05,3.15Zm90.9,7.2c-20.4-4.6-39.2-3.6-56.4,3,45.4,13.4,68.4,19.8,69,19.2,2.6-2.2,4.15-4.65,4.65-7.35.5-2.7-.7-5.5-3.6-8.4-2.9-2.9-7.45-5.05-13.65-6.45Z"/>
      <path class="cls-1" d="m169.92,321.6c-7.6,1.2-13.7.4-18.3-2.4-4.6-2.8-7.8-8.65-9.6-17.55-1.8-8.9-.6-21.45,3.6-37.65,2.6-10.2,7.8-28.5,15.6-54.9,7.8-26.4,13-45.3,15.6-56.7.2-.6,3.95-.55,11.25.15,7.3.7,14.25,2.25,20.85,4.65,6.6,2.4,9.3,5.5,8.1,9.3-.2.4-.95,2.1-2.25,5.1-1.3,3-2.8,6.45-4.5,10.35-1.7,3.9-3.95,9.7-6.75,17.4-2.8,7.7-5.6,16.05-8.4,25.05,4.8-10.2,9.75-19.25,14.85-27.15,5.1-7.9,9.75-14,13.95-18.3,4.2-4.3,8.25-7.8,12.15-10.5,3.9-2.7,7.1-3.95,9.6-3.75,2.5.2,4.65.8,6.45,1.8,13.8,13.8,12.7,40.2-3.3,79.2v.3c-3,.4-7.5-.2-13.5-1.8-6-1.6-11.4-3.85-16.2-6.75-4.8-2.9-6.8-5.75-6-8.55.2-.4,3.8-4.75,10.8-13.05,7-8.3,13.45-16.5,19.35-24.6,5.9-8.1,7.95-12.55,6.15-13.35-2.2-1-4.9-.9-8.1.3-3.2,1.2-7.4,4.4-12.6,9.6-5.2,5.2-10.55,12.25-16.05,21.15-5.5,8.9-11.75,21.55-18.75,37.95-7,16.4-13.8,35.3-20.4,56.7l-3.6,18Z"/>
      <path class="cls-1" d="m376.32,256.2c3.2-6,5.3-9.1,6.3-9.3.6-.2.9.9.9,3.3,0,3-1.5,7.1-4.5,12.3-10.8,19.6-20.3,33.7-28.5,42.3-12.6,13.6-21.8,19.2-27.6,16.8-5-2-8.05-8.8-9.15-20.4-1.1-11.6.05-23.8,3.45-36.6h-.3c-7.2,21.4-13.4,35.7-18.6,42.9-6.2,8.8-13.2,13.2-21,13.2s-14.85-3.85-20.55-11.55c-5.7-7.7-9.1-17.4-10.2-29.1s.25-24.45,4.05-38.25c2.6-8.2,5.85-16.05,9.75-23.55s8.1-14,12.6-19.5c4.5-5.5,9.25-10.45,14.25-14.85,5-4.4,9.85-7.95,14.55-10.65,4.7-2.7,9.15-4.7,13.35-6,4.2-1.3,7.9-1.75,11.1-1.35,3.2.4,5.7,1.6,7.5,3.6,0,.2.65.95,1.95,2.25,1.3,1.3,2.35,2.4,3.15,3.3.8.9,2.05,2.35,3.75,4.35,1.7,2,3,3.65,3.9,4.95.9,1.3,2.25,3.15,4.05,5.55,1.8,2.4,3.05,4.35,3.75,5.85.7,1.5,1.75,3.45,3.15,5.85,1.4,2.4,2.15,4.3,2.25,5.7.1,1.4.4,3.2.9,5.4.5,2.2.35,3.8-.45,4.8,0,.2-.4,1.45-1.2,3.75-.8,2.3-1.8,5.3-3,9-1.2,3.7-2.5,8.05-3.9,13.05-1.4,5-2.9,11.05-4.5,18.15-1.6,7.1-3,14.35-4.2,21.75-2,12.2-2.5,18.4-1.5,18.6.8.2,3.2-1.3,7.2-4.5,6.8-5.4,15.9-19.1,27.3-41.1Zm-50.1-51.9c.6-2,1.35-4.35,2.25-7.05.9-2.7,1.6-4.8,2.1-6.3.5-1.5.95-3.05,1.35-4.65.4-1.6.55-2.85.45-3.75-.1-.9-.45-1.45-1.05-1.65-6.2-3-13.75,1.9-22.65,14.7-8.9,12.8-15.85,28.2-20.85,46.2-3.4,11.8-5.8,22.2-7.2,31.2-1.4,9-1.6,16.15-.6,21.45,1,5.3,3.3,7.95,6.9,7.95,4.8,0,8.7-3.4,11.7-10.2,3-6.8,7.9-21.5,14.7-44.1l12.9-43.8Z"/>
      <path class="cls-1" d="m486.12,225.6c-6.6,21.8-20.65,42.9-42.15,63.3-21.5,20.4-40.45,30.6-56.85,30.6-5,0-9.25-1.25-12.75-3.75-3.5-2.5-6.15-6.35-7.95-11.55-1.8-5.2-2.55-11.6-2.25-19.2.3-7.6,1.8-16.75,4.5-27.45,2.7-10.7,6.65-22.45,11.85-35.25,4.4-11,7.6-21.35,9.6-31.05,2-9.7,2.9-16.65,2.7-20.85l-.3-6.3c13.2-2.8,22.5,1.65,27.9,13.35,5.4,11.7,4.5,26.65-2.7,44.85-18.4,45.4-28,72.4-28.8,81-.6,5.6.9,8.4,4.5,8.4,9.4,0,19.45-8.95,30.15-26.85,10.7-17.9,19.15-37.55,25.35-58.95,4.4-15,6.2-27.5,5.4-37.5-4.2-2.8-7-5.7-8.4-8.7-1.4-3-1.25-5.7.45-8.1,1.7-2.4,4.85-4.3,9.45-5.7,7.4-2.2,14.05-1,19.95,3.6,5.9,4.6,9.95,11.5,12.15,20.7,16.2,2.8,28.8.6,37.8-6.6,6.6-5,9.9-6.7,9.9-5.1,0,.6-.3,1.5-.9,2.7-2,3.4-5,6.5-9,9.3-9.2,6.4-21.3,9.3-36.3,8.7.6,7.8-.5,16.6-3.3,26.4Z"/>
      <path class="cls-1" d="m597.11,175.2c-1.6,9.2-10,22.85-25.2,40.95-15.2,18.1-31.5,33.65-48.9,46.65-5.4,26.8-3.2,40.9,6.6,42.3,7.2,1.4,17.4-2.6,30.6-12,13.2-9.4,23.8-21.7,31.8-36.9,4.6-8.6,7-10.6,7.2-6,0,3-1.5,7.1-4.5,12.3-8.8,15.6-20.85,29.2-36.15,40.8-15.3,11.6-29.05,17.4-41.25,17.4-13.2,0-22.4-8.15-27.6-24.45-5.2-16.3-4.7-34.45,1.5-54.45,2.6-8.2,5.85-16.45,9.75-24.75,3.9-8.3,8.05-15.85,12.45-22.65,4.4-6.8,9.1-13.25,14.1-19.35,5-6.1,9.8-11.15,14.4-15.15,4.6-4,9.05-7.45,13.35-10.35,4.3-2.9,8.05-4.45,11.25-4.65,3.2-.2,5.8.5,7.8,2.1.2.2,2.75,2.05,7.65,5.55,4.9,3.5,8.85,7.15,11.85,10.95,3,3.8,4.1,7.7,3.3,11.7Zm-68.7,66.6c-.6,1.4-1.6,4.9-3,10.5,10.2-10,19.6-22.4,28.2-37.2,8.6-14.8,14.55-27.7,17.85-38.7,3.3-11,3.45-17.3.45-18.9-3-1.4-6.55.45-10.65,5.55-4.1,5.1-8.15,12.2-12.15,21.3-4,9.1-7.8,18.6-11.4,28.5-3.6,9.9-6.7,19.55-9.3,28.95Z"/>
      <path class="cls-1" d="m590.21,318.6c-9.6-3-13-16.8-10.2-41.4,2.8-24.6,12.9-66.9,30.3-126.9-33,3.6-60.9.8-83.7-8.4-16.4-6.6-24.2-16.9-23.4-30.9.6-7.4,2.7-12.4,6.3-15,.8-.8,1.5-1,2.1-.6,32,20.2,67.3,31.1,105.9,32.7,6-16.8,13-32.55,21-47.25,8-14.7,17.1-28.25,27.3-40.65,10.2-12.4,21.75-22.2,34.65-29.4,12.9-7.2,26.25-10.8,40.05-10.8,21.6,0,33.7,8,36.3,24,2.4,15.2-3.5,32.7-17.7,52.5-10.2,14.2-22.6,26.2-37.2,36-18.8,12.4-41.7,22.3-68.7,29.7-.4.8-.8,2-1.2,3.6-25.4,78.6-39.2,124.4-41.4,137.4-2,11.6-1.7,17.5.9,17.7,1.2,0,3.3-1.2,6.3-3.6,4.6-3.6,13.2-17.3,25.8-41.1,4.6-7.8,7-9.7,7.2-5.7,0,2.8-1.5,6.8-4.5,12-11.4,20-20.9,34.1-28.5,42.3-11,12.2-20.2,16.8-27.6,13.8ZM727.01,9c-5.6,0-11.1,2.2-16.5,6.6-5.4,4.4-10.2,9.8-14.4,16.2-4.2,6.4-8.65,15.2-13.35,26.4-4.7,11.2-8.7,21.55-12,31.05-3.3,9.5-7.35,21.55-12.15,36.15,20.8-3.8,38.1-10.6,51.9-20.4,18.8-13.4,31.2-30.2,37.2-50.4,4.8-16.6,3.6-29.3-3.6-38.1-4.2-5-9.9-7.5-17.1-7.5Z"/>
      <path class="cls-1" d="m645.11,321.9c-9.4,3.2-14.2,2-14.4-3.6-.2-6,6.6-24,20.4-54,8.4-18.6,23.55-51.35,45.45-98.25,21.9-46.9,35.45-76.65,40.65-89.25v-.3c1.2,0,5.15-.05,11.85-.15,6.7-.1,13.65,1.15,20.85,3.75,7.2,2.6,10.2,6.1,9,10.5-14.8,55.6-26.7,110.9-35.7,165.9,9-20.2,18.1-42.2,27.3-66,9.2-23.8,18.1-47.4,26.7-70.8,8.6-23.4,13.9-37.6,15.9-42.6.2-.2.3-.4.3-.6.8-.2,1.8-.3,3-.3h3.6c4,.2,7.9.55,11.7,1.05,3.8.5,7.8,1.25,12,2.25,4.2,1,7.35,2.45,9.45,4.35,2.1,1.9,2.65,4.15,1.65,6.75l-.9,2.4c-.4,1.6-1.05,3.75-1.95,6.45-.9,2.7-1.9,5.85-3,9.45-1.1,3.6-2.3,7.75-3.6,12.45-1.3,4.7-2.55,9.6-3.75,14.7s-2.45,10.7-3.75,16.8c-1.3,6.1-2.45,12.15-3.45,18.15-1.2,6.4-4.1,25-8.7,55.8-4.8,33.2-5.65,60.45-2.55,81.75,3.1,21.3,9.6,37.25,19.5,47.85,9.9,10.6,21.45,17.35,34.65,20.25,13.2,2.9,27.5,2.55,42.9-1.05,15.4-3.6,30.15-8.9,44.25-15.9,14.1-7,26.95-15.2,38.55-24.6,1.2-1,7,.9,17.4,5.7,13.8,6.2,20.3,11.8,19.5,16.8-.2,1.8-1.4,3.4-3.6,4.8-13,8.4-27.5,15.6-43.5,21.6-16,6-32.55,10.1-49.65,12.3-17.1,2.2-33.95,2.6-50.55,1.2-16.6-1.4-32-5.8-46.2-13.2-14.2-7.4-26.3-17.2-36.3-29.4-10-12.2-17.05-28.5-21.15-48.9-4.1-20.4-4.35-43.8-.75-70.2,3.8-29.4,7.9-57.5,12.3-84.3-17.2,46.6-32.9,86.9-47.1,120.9-10,23.4-16.5,39.5-19.5,48.3l-.6,1.2c0,.2-1.15.35-3.45.45-2.3.1-5.1,0-8.4-.3-3.3-.3-6.55-.85-9.75-1.65-3.2-.8-5.85-2.25-7.95-4.35-2.1-2.1-2.95-4.65-2.55-7.65,3-27.6,11.8-87,26.4-178.2-24.4,53.2-45.3,100.6-62.7,142.2l-19.8,49.5Z"/>
      <path class="cls-1" d="m965.51,256.2c3.2-6,5.3-9.1,6.3-9.3.6-.2.9.9.9,3.3,0,3-1.5,7.1-4.5,12.3-10.8,19.6-20.3,33.7-28.5,42.3-12.6,13.6-21.8,19.2-27.6,16.8-5-2-8.05-8.8-9.15-20.4-1.1-11.6.05-23.8,3.45-36.6h-.3c-7.2,21.4-13.4,35.7-18.6,42.9-6.2,8.8-13.2,13.2-21,13.2s-14.85-3.85-20.55-11.55c-5.7-7.7-9.1-17.4-10.2-29.1s.25-24.45,4.05-38.25c2.6-8.2,5.85-16.05,9.75-23.55s8.1-14,12.6-19.5c4.5-5.5,9.25-10.45,14.25-14.85,5-4.4,9.85-7.95,14.55-10.65,4.7-2.7,9.15-4.7,13.35-6,4.2-1.3,7.9-1.75,11.1-1.35,3.2.4,5.7,1.6,7.5,3.6,0,.2.65.95,1.95,2.25,1.3,1.3,2.35,2.4,3.15,3.3.8.9,2.05,2.35,3.75,4.35,1.7,2,3,3.65,3.9,4.95.9,1.3,2.25,3.15,4.05,5.55,1.8,2.4,3.05,4.35,3.75,5.85.7,1.5,1.75,3.45,3.15,5.85,1.4,2.4,2.15,4.3,2.25,5.7.1,1.4.4,3.2.9,5.4.5,2.2.35,3.8-.45,4.8,0,.2-.4,1.45-1.2,3.75-.8,2.3-1.8,5.3-3,9-1.2,3.7-2.5,8.05-3.9,13.05-1.4,5-2.9,11.05-4.5,18.15-1.6,7.1-3,14.35-4.2,21.75-2,12.2-2.5,18.4-1.5,18.6.8.2,3.2-1.3,7.2-4.5,6.8-5.4,15.9-19.1,27.3-41.1Zm-50.1-51.9c.6-2,1.35-4.35,2.25-7.05.9-2.7,1.6-4.8,2.1-6.3.5-1.5.95-3.05,1.35-4.65.4-1.6.55-2.85.45-3.75-.1-.9-.45-1.45-1.05-1.65-6.2-3-13.75,1.9-22.65,14.7-8.9,12.8-15.85,28.2-20.85,46.2-3.4,11.8-5.8,22.2-7.2,31.2-1.4,9-1.6,16.15-.6,21.45,1,5.3,3.3,7.95,6.9,7.95,4.8,0,8.7-3.4,11.7-10.2,3-6.8,7.9-21.5,14.7-44.1l12.9-43.8Z"/>
      <path class="cls-1" d="m1066.31,129.9c-7.2,8.4-19.5,13.5-36.9,15.3-4.4,11-8.8,23.1-13.2,36.3-14,42.8-23.1,76.6-27.3,101.4-2,12.4-2.1,18.7-.3,18.9,1,0,3.5-1.6,7.5-4.8,5.4-4.2,14-17.8,25.8-40.8,3.2-6,5.3-9.1,6.3-9.3.6-.2.9.9.9,3.3,0,3-1.5,7.1-4.5,12.3-11.4,20.2-20.9,34.3-28.5,42.3-11.2,12.2-20.4,16.8-27.6,13.8-5.8-2.4-9.85-8.8-12.15-19.2-2.3-10.4-1.75-22.9,1.65-37.5,1.2-5.2,5.7-20.95,13.5-47.25,7.8-26.3,14.3-49.05,19.5-68.25-6.8,0-12.2-.1-16.2-.3-2-3.8-1.95-7.75.15-11.85,2.1-4.1,5.45-6.25,10.05-6.45h10.8c1.2-4.2,2.8-10.35,4.8-18.45,2-8.1,3.3-13.45,3.9-16.05h12.3c7,0,14.05,1.3,21.15,3.9,7.1,2.6,9.85,6,8.25,10.2-3.6,7-6.8,13.8-9.6,20.4h30c.6,0,.5.7-.3,2.1Z"/>
      <path class="cls-1" d="m1125.41,175.2c-1.6,9.2-10,22.85-25.2,40.95-15.2,18.1-31.5,33.65-48.9,46.65-5.4,26.8-3.2,40.9,6.6,42.3,7.2,1.4,17.4-2.6,30.6-12,13.2-9.4,23.8-21.7,31.8-36.9,4.6-8.6,7-10.6,7.2-6,0,3-1.5,7.1-4.5,12.3-8.8,15.6-20.85,29.2-36.15,40.8-15.3,11.6-29.05,17.4-41.25,17.4-13.2,0-22.4-8.15-27.6-24.45-5.2-16.3-4.7-34.45,1.5-54.45,2.6-8.2,5.85-16.45,9.75-24.75,3.9-8.3,8.05-15.85,12.45-22.65,4.4-6.8,9.1-13.25,14.1-19.35,5-6.1,9.8-11.15,14.4-15.15,4.6-4,9.05-7.45,13.35-10.35,4.3-2.9,8.05-4.45,11.25-4.65,3.2-.2,5.8.5,7.8,2.1.2.2,2.75,2.05,7.65,5.55,4.9,3.5,8.85,7.15,11.85,10.95,3,3.8,4.1,7.7,3.3,11.7Zm-68.7,66.6c-.6,1.4-1.6,4.9-3,10.5,10.2-10,19.6-22.4,28.2-37.2,8.6-14.8,14.55-27.7,17.85-38.7,3.3-11,3.45-17.3.45-18.9-3-1.4-6.55.45-10.65,5.55-4.1,5.1-8.15,12.2-12.15,21.3-4,9.1-7.8,18.6-11.4,28.5-3.6,9.9-6.7,19.55-9.3,28.95Z"/>
    </g>
  </g>
</svg>